<svg width="31" height="33" viewBox="0 0 31 33" fill="none" xmlns="http://www.w3.org/2000/svg">
<path d="M5.66492 27.703H25.0847C25.3212 27.703 25.5494 27.611 25.7256 27.4445C25.9018 27.2781 26.0136 27.0489 26.0398 26.8008L27.748 10.5732C27.763 10.4315 27.7494 10.288 27.7082 10.1521C27.667 10.0163 27.5991 9.89112 27.509 9.78484C27.4189 9.67855 27.3085 9.59353 27.1851 9.53532C27.0618 9.47711 26.9281 9.44702 26.793 9.44702H3.95664C3.8215 9.44702 3.68788 9.47711 3.5645 9.53532C3.44113 9.59353 3.33077 9.67855 3.24064 9.78484C3.15052 9.89112 3.08264 10.0163 3.04145 10.1521C3.00027 10.288 2.98669 10.4315 3.00161 10.5732L4.70989 26.8008C4.736 27.0489 4.84786 27.2781 5.02407 27.4445C5.20027 27.611 5.42844 27.703 5.66492 27.703Z" stroke="white" stroke-width="2.56241" stroke-linecap="round" stroke-linejoin="round"/>
<path d="M20.1797 13.504V9.44708C20.1797 8.10214 19.6735 6.81229 18.7725 5.86127C17.8715 4.91025 16.6494 4.37598 15.3752 4.37598C14.1009 4.37598 12.8789 4.91025 11.9779 5.86127C11.0768 6.81229 10.5706 8.10214 10.5706 9.44708V13.504" stroke="white" stroke-width="2.56241" stroke-linecap="round" stroke-linejoin="round"/>
</svg>
