<svg width="24" height="24" viewBox="0 0 24 24" fill="none" xmlns="http://www.w3.org/2000/svg">
<path d="M10.4125 20.018C10.4097 20.018 10.4064 20.018 10.4036 20.018C10.2874 20.0156 10.1777 19.966 10.0989 19.8806L2.06173 11.1413C1.92392 10.9913 1.91127 10.7653 2.03173 10.6008C2.1522 10.4367 2.37158 10.3805 2.55627 10.4667L9.91236 13.9111C9.97423 13.9402 10.0474 13.9261 10.0947 13.8769L21.3156 2.14923C21.4675 1.99033 21.716 1.97298 21.8885 2.10986C22.061 2.24673 22.1008 2.49236 21.9803 2.67658L10.8185 19.7756C10.8025 19.8005 10.7838 19.823 10.7631 19.8441L10.7139 19.8933C10.6338 19.973 10.525 20.018 10.4125 20.018Z" fill="black"/>
</svg>
