<svg width="27" height="27" viewBox="0 0 27 27" fill="none" xmlns="http://www.w3.org/2000/svg">
<path d="M10.0851 20.25C9.81218 22.1581 8.17114 23.625 6.1875 23.625C4.20386 23.625 2.56282 22.1581 2.28987 20.25H1.125V6.75C1.125 6.12868 1.62868 5.625 2.25 5.625H18C18.6213 5.625 19.125 6.12868 19.125 6.75V9H22.5L25.875 13.5627V20.25H23.5852C23.3121 22.1581 21.6711 23.625 19.6875 23.625C17.7039 23.625 16.0629 22.1581 15.7898 20.25H10.0851ZM16.875 7.875H3.375V16.9318C4.08967 16.2025 5.08574 15.75 6.1875 15.75C7.75822 15.75 9.11413 16.6697 9.74608 18H16.1289C16.3176 17.6029 16.5708 17.2422 16.875 16.9318V7.875ZM19.125 14.625H23.625V14.3044L21.3657 11.25H19.125V14.625ZM19.6875 21.375C20.4222 21.375 21.0473 20.9054 21.2789 20.25C21.3411 20.0741 21.375 19.8847 21.375 19.6875C21.375 18.7555 20.6195 18 19.6875 18C18.7555 18 18 18.7555 18 19.6875C18 19.8847 18.0339 20.0741 18.0961 20.25C18.3277 20.9054 18.9528 21.375 19.6875 21.375ZM7.875 19.6875C7.875 18.7555 7.11948 18 6.1875 18C5.25552 18 4.5 18.7555 4.5 19.6875C4.5 19.8847 4.53384 20.0741 4.59602 20.25C4.82768 20.9054 5.45275 21.375 6.1875 21.375C6.92225 21.375 7.54732 20.9054 7.77898 20.25C7.84116 20.0741 7.875 19.8847 7.875 19.6875Z" fill="white"/>
</svg>
