<svg width="29" height="29" viewBox="0 0 29 29" fill="none" xmlns="http://www.w3.org/2000/svg">
<path d="M22.5256 15.6843L14.5089 23.397L6.49223 15.6843M6.49223 15.6843C5.96345 15.1845 5.54695 14.5837 5.26893 13.9198C4.99092 13.2559 4.85743 12.5433 4.87685 11.8269C4.89628 11.1104 5.06821 10.4056 5.38182 9.75688C5.69543 9.10814 6.14391 8.5295 6.69904 8.0574C7.25417 7.5853 7.90392 7.22997 8.60736 7.01379C9.3108 6.7976 10.0527 6.72524 10.7864 6.80126C11.52 6.87729 12.2295 7.10005 12.8702 7.45551C13.5108 7.81098 14.0688 8.29146 14.5089 8.86669C14.9509 8.29564 15.5095 7.81936 16.1498 7.46766C16.79 7.11596 17.4981 6.89642 18.2296 6.82277C18.9612 6.74913 19.7006 6.82296 20.4015 7.03965C21.1023 7.25634 21.7496 7.61123 22.3028 8.0821C22.856 8.55297 23.3031 9.12968 23.6163 9.77615C23.9295 10.4226 24.1019 11.1249 24.1228 11.8391C24.1438 12.5533 24.0127 13.264 23.7379 13.9267C23.463 14.5894 23.0503 15.1899 22.5256 15.6905" stroke="white" stroke-width="1.25" stroke-linecap="round" stroke-linejoin="round"/>
</svg>
