<svg width="29" height="29" viewBox="0 0 29 29" fill="none" xmlns="http://www.w3.org/2000/svg">
<path fill-rule="evenodd" clip-rule="evenodd" d="M14.9375 4.71143C9.48369 4.71143 5.0625 9.13261 5.0625 14.5864C5.0625 20.0402 9.48369 24.4614 14.9375 24.4614C20.3913 24.4614 24.8125 20.0402 24.8125 14.5864C24.8125 9.13261 20.3913 4.71143 14.9375 4.71143ZM3.8125 14.5864C3.8125 8.44226 8.79333 3.46143 14.9375 3.46143C21.0817 3.46143 26.0625 8.44226 26.0625 14.5864C26.0625 20.7306 21.0817 25.7114 14.9375 25.7114C8.79333 25.7114 3.8125 20.7306 3.8125 14.5864ZM14.9355 19.7948C15.2807 19.7948 15.5605 20.0747 15.5605 20.4198V20.4315C15.5605 20.7767 15.2807 21.0565 14.9355 21.0565C14.5904 21.0565 14.3105 20.7767 14.3105 20.4315V20.4198C14.3105 20.0747 14.5904 19.7948 14.9355 19.7948ZM15.0315 8.09502C14.4653 8.09345 13.9064 8.22334 13.3989 8.47445C12.8914 8.72556 12.4491 9.09105 12.1069 9.54214C11.8983 9.81713 11.9521 10.2092 12.227 10.4178C12.502 10.6265 12.8941 10.5727 13.1027 10.2977C13.328 10.0007 13.6192 9.76011 13.9533 9.5948C14.2874 9.42949 14.6553 9.34398 15.028 9.34502C15.4008 9.34605 15.7682 9.4336 16.1014 9.60076C16.4345 9.76792 16.7244 10.0101 16.948 10.3083C17.1717 10.6065 17.323 10.9526 17.3902 11.3192C17.4574 11.6859 17.4386 12.0631 17.3352 12.4213C17.2318 12.7794 17.0467 13.1086 16.7945 13.3831C16.5439 13.6557 16.2338 13.8669 15.8884 14.0002C15.4066 14.1718 14.993 14.4944 14.7092 14.9201C14.4236 15.3484 14.285 15.858 14.3141 16.372C14.3337 16.7166 14.6289 16.9801 14.9735 16.9606C15.3182 16.941 15.5817 16.6458 15.5621 16.3012C15.5483 16.0577 15.614 15.8163 15.7493 15.6134C15.8846 15.4105 16.0821 15.2571 16.3121 15.1762L16.3281 15.1703C16.8569 14.9681 17.3316 14.6458 17.7148 14.229C18.098 13.8121 18.3791 13.3119 18.5362 12.7679C18.6932 12.2239 18.7218 11.6509 18.6198 11.0939C18.5177 10.537 18.2877 10.0113 17.948 9.55834C17.6083 9.10536 17.168 8.73743 16.6619 8.4835C16.1558 8.22958 15.5977 8.09659 15.0315 8.09502Z" fill="white"/>
</svg>
