<svg width="31" height="33" viewBox="0 0 31 33" fill="none" xmlns="http://www.w3.org/2000/svg">
<path fill-rule="evenodd" clip-rule="evenodd" d="M23.5292 18.8103C26.6602 14.7893 26.3774 8.97176 22.6808 5.27525C18.6781 1.27251 12.1884 1.27251 8.18565 5.27525C4.18291 9.27799 4.18291 15.7677 8.18565 19.7704C11.8822 23.467 17.6997 23.7498 21.7207 20.6188C21.7381 20.6384 21.7561 20.6576 21.7749 20.6764L27.2106 26.1121C27.7109 26.6124 28.5222 26.6124 29.0225 26.1121C29.5228 25.6118 29.5228 24.8005 29.0225 24.3002L23.5868 18.8645C23.568 18.8457 23.5488 18.8277 23.5292 18.8103ZM20.8689 7.08715C23.871 10.0892 23.871 14.9565 20.8689 17.9585C17.8669 20.9606 12.9996 20.9606 9.99755 17.9585C6.99549 14.9565 6.99549 10.0892 9.99755 7.08715C12.9996 4.08509 17.8669 4.08509 20.8689 7.08715Z" fill="white"/>
</svg>
