<svg width="29" height="29" viewBox="0 0 29 29" fill="none" xmlns="http://www.w3.org/2000/svg">
<path fill-rule="evenodd" clip-rule="evenodd" d="M21.1374 4.65063C19.5495 4.65063 18.2624 5.93782 18.2624 7.52563C18.2624 7.94877 18.3538 8.35055 18.5179 8.71231C18.5267 8.72645 18.535 8.74105 18.5427 8.75609C18.5557 8.78123 18.5667 8.80685 18.576 8.83277C19.0519 9.76349 20.0202 10.4006 21.1374 10.4006C22.7252 10.4006 24.0124 9.11345 24.0124 7.52563C24.0124 5.93782 22.7252 4.65063 21.1374 4.65063ZM17.0124 7.52563C17.0124 7.95076 17.0767 8.36086 17.1961 8.74675L10.5307 12.1804C9.78621 11.105 8.54373 10.4005 7.13672 10.4005C4.85854 10.4005 3.01172 12.2474 3.01172 14.5256C3.01172 16.8037 4.85854 18.6506 7.13672 18.6506C8.5437 18.6506 9.78615 17.9461 10.5306 16.8707L17.1961 20.3045C17.0767 20.6904 17.0124 21.1005 17.0124 21.5257C17.0124 23.8038 18.8592 25.6507 21.1374 25.6507C23.4155 25.6507 25.2624 23.8038 25.2624 21.5257C25.2624 19.2475 23.4155 17.4007 21.1374 17.4007C19.7304 17.4007 18.488 18.105 17.7435 19.1804L11.078 15.7466C11.1974 15.3607 11.2617 14.9507 11.2617 14.5256C11.2617 14.1005 11.1974 13.6904 11.078 13.3046L17.7435 9.87088C18.488 10.9462 19.7304 11.6506 21.1374 11.6506C23.4155 11.6506 25.2624 9.80381 25.2624 7.52563C25.2624 5.24746 23.4155 3.40063 21.1374 3.40063C18.8592 3.40063 17.0124 5.24746 17.0124 7.52563ZM9.75581 15.713C9.92018 15.351 10.0117 14.949 10.0117 14.5256C10.0117 14.1023 9.92025 13.7004 9.75599 13.3385C9.74734 13.3245 9.73916 13.3101 9.7315 13.2952C9.71862 13.2702 9.7076 13.2448 9.69838 13.219C9.22256 12.288 8.25408 11.6505 7.13672 11.6505C5.5489 11.6505 4.26172 12.9377 4.26172 14.5256C4.26172 16.1134 5.5489 17.4006 7.13672 17.4006C8.25418 17.4006 9.22273 16.763 9.69851 15.8318C9.7077 15.8062 9.71869 15.7809 9.7315 15.756C9.7391 15.7412 9.74722 15.7269 9.75581 15.713ZM18.5181 20.3387C18.5268 20.3246 18.535 20.3101 18.5427 20.2951C18.5556 20.2701 18.5667 20.2446 18.5759 20.2187C19.0518 19.2879 20.0202 18.6507 21.1374 18.6507C22.7252 18.6507 24.0124 19.9378 24.0124 21.5257C24.0124 23.1135 22.7252 24.4007 21.1374 24.4007C19.5495 24.4007 18.2624 23.1135 18.2624 21.5257C18.2624 21.1024 18.3538 20.7005 18.5181 20.3387Z" fill="white"/>
</svg>
