<svg width="117" height="117" viewBox="0 0 117 117" fill="none" xmlns="http://www.w3.org/2000/svg">
<g clip-path="url(#clip0_7_2748)">
<path d="M114.589 30.4142C113.241 25.402 109.289 21.4512 104.278 20.1016C95.1219 17.5959 58.4989 17.5959 58.4989 17.5959C58.4989 17.5959 21.8767 17.5959 12.7209 20.0061C7.8061 21.3548 3.75799 25.4029 2.40922 30.4142C0 39.5691 0 58.5554 0 58.5554C0 58.5554 0 77.6373 2.40922 86.6966C3.75889 91.7079 7.70969 95.6596 12.7218 97.0093C21.9731 99.5149 58.4998 99.5149 58.4998 99.5149C58.4998 99.5149 95.1219 99.5149 104.278 97.1048C109.29 95.756 113.241 91.8043 114.59 86.793C117 77.6373 117 58.6518 117 58.6518C117 58.6518 117.096 39.5691 114.589 30.4142Z" fill="#FF0000"/>
<path d="M46.8379 76.0957L77.2919 58.5554L46.8379 41.0151V76.0957Z" fill="white"/>
</g>
<defs>
<clipPath id="clip0_7_2748">
<rect width="117" height="117" fill="white"/>
</clipPath>
</defs>
</svg>
